M48
; DRILL file {KiCad (5.1.8)-1} date 03/29/21 12:52:20
; FORMAT={-:-/ absolute / metric / decimal}
; #@! TF.CreationDate,2021-03-29T12:52:20+02:00
; #@! TF.GenerationSoftware,Kicad,Pcbnew,(5.1.8)-1
; #@! TF.FileFunction,Plated,1,2,PTH
FMAT,2
METRIC
T1C0.600
T2C0.800
T3C1.000
T4C1.100
T5C1.200
%
G90
G05
T1
X31.5Y-27.0
X31.5Y-60.5
X32.5Y-27.0
X32.5Y-60.5
X33.5Y-27.0
X33.5Y-60.5
X34.5Y-27.0
X34.5Y-60.5
X35.5Y-27.0
X35.5Y-60.5
X46.0Y-50.0
X47.0Y-16.0
X47.5Y-42.0
X47.5Y-46.0
X47.5Y-50.0
X48.0Y-4.5
X48.0Y-8.5
X48.0Y-12.5
X48.5Y-16.0
X49.0Y-50.0
X50.0Y-16.0
X50.5Y-50.0
X51.5Y-16.0
X52.0Y-50.0
X53.0Y-16.0
X53.5Y-50.0
X57.5Y-21.5
X57.5Y-55.0
X58.5Y-21.5
X58.5Y-55.0
X59.5Y-21.5
X59.5Y-55.0
X59.6Y-50.01
X60.03Y-16.48
X65.75Y-54.99
X65.78Y-21.23
X66.63Y-30.24
X68.12Y-26.09
X68.15Y-59.05
X75.7Y-67.39
T2
X75.7Y-74.5
X79.0Y-72.0
X79.0Y-77.0
T4
X78.0Y-40.38
X78.0Y-42.92
X78.0Y-45.46
X78.0Y-48.0
X60.5Y-88.0
X63.04Y-88.0
T5
X77.0Y-26.5
X77.0Y-29.0
X77.0Y-31.5
X77.0Y-34.0
X79.5Y-26.5
X79.5Y-29.0
X79.5Y-31.5
X79.5Y-34.0
T3
G00X44.5Y-80.5
M15
G01X46.5Y-80.5
M16
G05
G00X44.5Y-86.5
M15
G01X46.5Y-86.5
M16
G05
G00X50.2Y-84.5
M15
G01X50.2Y-82.5
M16
G05
T0
M30
