%TF.GenerationSoftware,KiCad,Pcbnew,(5.1.8)-1*%
%TF.CreationDate,2021-03-29T18:58:24+02:00*%
%TF.ProjectId,GCM_powerSupply,47434d5f-706f-4776-9572-537570706c79,V1.0*%
%TF.SameCoordinates,PX43b5fc0PY29020c0*%
%TF.FileFunction,Soldermask,Bot*%
%TF.FilePolarity,Negative*%
%FSLAX46Y46*%
G04 Gerber Fmt 4.6, Leading zero omitted, Abs format (unit mm)*
G04 Created by KiCad (PCBNEW (5.1.8)-1) date 2021-03-29 18:58:24*
%MOMM*%
%LPD*%
G01*
G04 APERTURE LIST*
%ADD10R,2.200000X2.200000*%
%ADD11C,1.100000*%
%ADD12C,2.200000*%
%ADD13R,3.500000X3.500000*%
%ADD14C,1.700000*%
%ADD15C,1.300000*%
%ADD16C,3.000000*%
%ADD17C,1.500000*%
G04 APERTURE END LIST*
D10*
%TO.C,J1*%
X60500000Y-88000000D03*
D11*
X60500000Y-90540000D03*
D12*
X63040000Y-88000000D03*
D11*
X63040000Y-90540000D03*
%TD*%
D13*
%TO.C,J2*%
X45500000Y-80500000D03*
G36*
G01*
X46500000Y-88000000D02*
X44500000Y-88000000D01*
G75*
G02*
X43750000Y-87250000I0J750000D01*
G01*
X43750000Y-85750000D01*
G75*
G02*
X44500000Y-85000000I750000J0D01*
G01*
X46500000Y-85000000D01*
G75*
G02*
X47250000Y-85750000I0J-750000D01*
G01*
X47250000Y-87250000D01*
G75*
G02*
X46500000Y-88000000I-750000J0D01*
G01*
G37*
G36*
G01*
X51075000Y-85250000D02*
X49325000Y-85250000D01*
G75*
G02*
X48450000Y-84375000I0J875000D01*
G01*
X48450000Y-82625000D01*
G75*
G02*
X49325000Y-81750000I875000J0D01*
G01*
X51075000Y-81750000D01*
G75*
G02*
X51950000Y-82625000I0J-875000D01*
G01*
X51950000Y-84375000D01*
G75*
G02*
X51075000Y-85250000I-875000J0D01*
G01*
G37*
%TD*%
%TO.C,J3*%
G36*
G01*
X76150000Y-27100000D02*
X76150000Y-25900000D01*
G75*
G02*
X76400000Y-25650000I250000J0D01*
G01*
X77600000Y-25650000D01*
G75*
G02*
X77850000Y-25900000I0J-250000D01*
G01*
X77850000Y-27100000D01*
G75*
G02*
X77600000Y-27350000I-250000J0D01*
G01*
X76400000Y-27350000D01*
G75*
G02*
X76150000Y-27100000I0J250000D01*
G01*
G37*
D14*
X77000000Y-29000000D03*
X77000000Y-31500000D03*
X77000000Y-34000000D03*
X79500000Y-26500000D03*
X79500000Y-29000000D03*
X79500000Y-31500000D03*
X79500000Y-34000000D03*
D15*
X75660000Y-30250000D03*
%TD*%
D10*
%TO.C,J4*%
X78000000Y-48000000D03*
D12*
X78000000Y-45460000D03*
X78000000Y-42920000D03*
X78000000Y-40380000D03*
%TD*%
D16*
%TO.C,H1*%
X4000000Y-4000000D03*
%TD*%
%TO.C,H2*%
X81000000Y-4000000D03*
%TD*%
%TO.C,H3*%
X4000000Y-91000000D03*
%TD*%
%TO.C,H4*%
X81000000Y-91000000D03*
%TD*%
D17*
%TO.C,SW1*%
X78000000Y-77000000D03*
X78000000Y-74500000D03*
X78000000Y-72000000D03*
%TD*%
M02*
