%TF.GenerationSoftware,KiCad,Pcbnew,(5.1.8)-1*%
%TF.CreationDate,2021-03-29T13:59:47+02:00*%
%TF.ProjectId,GCM_powerSupply,47434d5f-706f-4776-9572-537570706c79,V1.0*%
%TF.SameCoordinates,PX43b5fc0PY29020c0*%
%TF.FileFunction,Legend,Top*%
%TF.FilePolarity,Positive*%
%FSLAX46Y46*%
G04 Gerber Fmt 4.6, Leading zero omitted, Abs format (unit mm)*
G04 Created by KiCad (PCBNEW (5.1.8)-1) date 2021-03-29 13:59:47*
%MOMM*%
%LPD*%
G01*
G04 APERTURE LIST*
%ADD10C,0.150000*%
%ADD11C,0.300000*%
%ADD12C,0.120000*%
%ADD13C,0.200000*%
%ADD14C,0.100000*%
%ADD15C,0.254000*%
G04 APERTURE END LIST*
D10*
X82238095Y-33800000D02*
X82142857Y-33752380D01*
X82000000Y-33752380D01*
X81857142Y-33800000D01*
X81761904Y-33895238D01*
X81714285Y-33990476D01*
X81666666Y-34180952D01*
X81666666Y-34323809D01*
X81714285Y-34514285D01*
X81761904Y-34609523D01*
X81857142Y-34704761D01*
X82000000Y-34752380D01*
X82095238Y-34752380D01*
X82238095Y-34704761D01*
X82285714Y-34657142D01*
X82285714Y-34323809D01*
X82095238Y-34323809D01*
X82714285Y-34752380D02*
X82714285Y-33752380D01*
X83285714Y-34752380D01*
X83285714Y-33752380D01*
X83761904Y-34752380D02*
X83761904Y-33752380D01*
X84000000Y-33752380D01*
X84142857Y-33800000D01*
X84238095Y-33895238D01*
X84285714Y-33990476D01*
X84333333Y-34180952D01*
X84333333Y-34323809D01*
X84285714Y-34514285D01*
X84238095Y-34609523D01*
X84142857Y-34704761D01*
X84000000Y-34752380D01*
X83761904Y-34752380D01*
X81761904Y-25952380D02*
X82380952Y-25952380D01*
X82047619Y-26333333D01*
X82190476Y-26333333D01*
X82285714Y-26380952D01*
X82333333Y-26428571D01*
X82380952Y-26523809D01*
X82380952Y-26761904D01*
X82333333Y-26857142D01*
X82285714Y-26904761D01*
X82190476Y-26952380D01*
X81904761Y-26952380D01*
X81809523Y-26904761D01*
X81761904Y-26857142D01*
X82666666Y-25952380D02*
X83000000Y-26952380D01*
X83333333Y-25952380D01*
X83571428Y-25952380D02*
X84190476Y-25952380D01*
X83857142Y-26333333D01*
X84000000Y-26333333D01*
X84095238Y-26380952D01*
X84142857Y-26428571D01*
X84190476Y-26523809D01*
X84190476Y-26761904D01*
X84142857Y-26857142D01*
X84095238Y-26904761D01*
X84000000Y-26952380D01*
X83714285Y-26952380D01*
X83619047Y-26904761D01*
X83571428Y-26857142D01*
X73509523Y-33852380D02*
X73033333Y-33852380D01*
X72985714Y-34328571D01*
X73033333Y-34280952D01*
X73128571Y-34233333D01*
X73366666Y-34233333D01*
X73461904Y-34280952D01*
X73509523Y-34328571D01*
X73557142Y-34423809D01*
X73557142Y-34661904D01*
X73509523Y-34757142D01*
X73461904Y-34804761D01*
X73366666Y-34852380D01*
X73128571Y-34852380D01*
X73033333Y-34804761D01*
X72985714Y-34757142D01*
X73842857Y-33852380D02*
X74176190Y-34852380D01*
X74509523Y-33852380D01*
X82138095Y-47500000D02*
X82042857Y-47452380D01*
X81900000Y-47452380D01*
X81757142Y-47500000D01*
X81661904Y-47595238D01*
X81614285Y-47690476D01*
X81566666Y-47880952D01*
X81566666Y-48023809D01*
X81614285Y-48214285D01*
X81661904Y-48309523D01*
X81757142Y-48404761D01*
X81900000Y-48452380D01*
X81995238Y-48452380D01*
X82138095Y-48404761D01*
X82185714Y-48357142D01*
X82185714Y-48023809D01*
X81995238Y-48023809D01*
X82614285Y-48452380D02*
X82614285Y-47452380D01*
X83185714Y-48452380D01*
X83185714Y-47452380D01*
X83661904Y-48452380D02*
X83661904Y-47452380D01*
X83900000Y-47452380D01*
X84042857Y-47500000D01*
X84138095Y-47595238D01*
X84185714Y-47690476D01*
X84233333Y-47880952D01*
X84233333Y-48023809D01*
X84185714Y-48214285D01*
X84138095Y-48309523D01*
X84042857Y-48404761D01*
X83900000Y-48452380D01*
X83661904Y-48452380D01*
X82138095Y-44900000D02*
X82042857Y-44852380D01*
X81900000Y-44852380D01*
X81757142Y-44900000D01*
X81661904Y-44995238D01*
X81614285Y-45090476D01*
X81566666Y-45280952D01*
X81566666Y-45423809D01*
X81614285Y-45614285D01*
X81661904Y-45709523D01*
X81757142Y-45804761D01*
X81900000Y-45852380D01*
X81995238Y-45852380D01*
X82138095Y-45804761D01*
X82185714Y-45757142D01*
X82185714Y-45423809D01*
X81995238Y-45423809D01*
X82614285Y-45852380D02*
X82614285Y-44852380D01*
X83185714Y-45852380D01*
X83185714Y-44852380D01*
X83661904Y-45852380D02*
X83661904Y-44852380D01*
X83900000Y-44852380D01*
X84042857Y-44900000D01*
X84138095Y-44995238D01*
X84185714Y-45090476D01*
X84233333Y-45280952D01*
X84233333Y-45423809D01*
X84185714Y-45614285D01*
X84138095Y-45709523D01*
X84042857Y-45804761D01*
X83900000Y-45852380D01*
X83661904Y-45852380D01*
X81661904Y-42352380D02*
X82280952Y-42352380D01*
X81947619Y-42733333D01*
X82090476Y-42733333D01*
X82185714Y-42780952D01*
X82233333Y-42828571D01*
X82280952Y-42923809D01*
X82280952Y-43161904D01*
X82233333Y-43257142D01*
X82185714Y-43304761D01*
X82090476Y-43352380D01*
X81804761Y-43352380D01*
X81709523Y-43304761D01*
X81661904Y-43257142D01*
X82566666Y-42352380D02*
X82900000Y-43352380D01*
X83233333Y-42352380D01*
X83471428Y-42352380D02*
X84090476Y-42352380D01*
X83757142Y-42733333D01*
X83900000Y-42733333D01*
X83995238Y-42780952D01*
X84042857Y-42828571D01*
X84090476Y-42923809D01*
X84090476Y-43161904D01*
X84042857Y-43257142D01*
X83995238Y-43304761D01*
X83900000Y-43352380D01*
X83614285Y-43352380D01*
X83519047Y-43304761D01*
X83471428Y-43257142D01*
X82709523Y-39852380D02*
X82233333Y-39852380D01*
X82185714Y-40328571D01*
X82233333Y-40280952D01*
X82328571Y-40233333D01*
X82566666Y-40233333D01*
X82661904Y-40280952D01*
X82709523Y-40328571D01*
X82757142Y-40423809D01*
X82757142Y-40661904D01*
X82709523Y-40757142D01*
X82661904Y-40804761D01*
X82566666Y-40852380D01*
X82328571Y-40852380D01*
X82233333Y-40804761D01*
X82185714Y-40757142D01*
X83042857Y-39852380D02*
X83376190Y-40852380D01*
X83709523Y-39852380D01*
X51571428Y-93452380D02*
X51571428Y-92452380D01*
X52047619Y-92785714D02*
X52047619Y-93452380D01*
X52047619Y-92880952D02*
X52095238Y-92833333D01*
X52190476Y-92785714D01*
X52333333Y-92785714D01*
X52428571Y-92833333D01*
X52476190Y-92928571D01*
X52476190Y-93452380D01*
X52952380Y-92785714D02*
X52952380Y-93785714D01*
X52952380Y-92833333D02*
X53047619Y-92785714D01*
X53238095Y-92785714D01*
X53333333Y-92833333D01*
X53380952Y-92880952D01*
X53428571Y-92976190D01*
X53428571Y-93261904D01*
X53380952Y-93357142D01*
X53333333Y-93404761D01*
X53238095Y-93452380D01*
X53047619Y-93452380D01*
X52952380Y-93404761D01*
X54285714Y-92785714D02*
X54285714Y-93452380D01*
X53857142Y-92785714D02*
X53857142Y-93309523D01*
X53904761Y-93404761D01*
X54000000Y-93452380D01*
X54142857Y-93452380D01*
X54238095Y-93404761D01*
X54285714Y-93357142D01*
X54619047Y-92785714D02*
X55000000Y-92785714D01*
X54761904Y-92452380D02*
X54761904Y-93309523D01*
X54809523Y-93404761D01*
X54904761Y-93452380D01*
X55000000Y-93452380D01*
X56095238Y-93357142D02*
X56142857Y-93404761D01*
X56095238Y-93452380D01*
X56047619Y-93404761D01*
X56095238Y-93357142D01*
X56095238Y-93452380D01*
X56095238Y-92833333D02*
X56142857Y-92880952D01*
X56095238Y-92928571D01*
X56047619Y-92880952D01*
X56095238Y-92833333D01*
X56095238Y-92928571D01*
X57380952Y-93452380D02*
X57571428Y-93452380D01*
X57666666Y-93404761D01*
X57714285Y-93357142D01*
X57809523Y-93214285D01*
X57857142Y-93023809D01*
X57857142Y-92642857D01*
X57809523Y-92547619D01*
X57761904Y-92500000D01*
X57666666Y-92452380D01*
X57476190Y-92452380D01*
X57380952Y-92500000D01*
X57333333Y-92547619D01*
X57285714Y-92642857D01*
X57285714Y-92880952D01*
X57333333Y-92976190D01*
X57380952Y-93023809D01*
X57476190Y-93071428D01*
X57666666Y-93071428D01*
X57761904Y-93023809D01*
X57809523Y-92976190D01*
X57857142Y-92880952D01*
X58142857Y-92452380D02*
X58476190Y-93452380D01*
X58809523Y-92452380D01*
X59761904Y-92785714D02*
X60142857Y-92785714D01*
X59904761Y-92452380D02*
X59904761Y-93309523D01*
X59952380Y-93404761D01*
X60047619Y-93452380D01*
X60142857Y-93452380D01*
X60619047Y-93452380D02*
X60523809Y-93404761D01*
X60476190Y-93357142D01*
X60428571Y-93261904D01*
X60428571Y-92976190D01*
X60476190Y-92880952D01*
X60523809Y-92833333D01*
X60619047Y-92785714D01*
X60761904Y-92785714D01*
X60857142Y-92833333D01*
X60904761Y-92880952D01*
X60952380Y-92976190D01*
X60952380Y-93261904D01*
X60904761Y-93357142D01*
X60857142Y-93404761D01*
X60761904Y-93452380D01*
X60619047Y-93452380D01*
X62666666Y-93452380D02*
X62095238Y-93452380D01*
X62380952Y-93452380D02*
X62380952Y-92452380D01*
X62285714Y-92595238D01*
X62190476Y-92690476D01*
X62095238Y-92738095D01*
X63000000Y-92452380D02*
X63666666Y-92452380D01*
X63238095Y-93452380D01*
X63904761Y-92452380D02*
X64238095Y-93452380D01*
X64571428Y-92452380D01*
D11*
X2833333Y-75000000D02*
X2642857Y-74904761D01*
X2357142Y-74904761D01*
X2071428Y-75000000D01*
X1880952Y-75190476D01*
X1785714Y-75380952D01*
X1690476Y-75761904D01*
X1690476Y-76047619D01*
X1785714Y-76428571D01*
X1880952Y-76619047D01*
X2071428Y-76809523D01*
X2357142Y-76904761D01*
X2547619Y-76904761D01*
X2833333Y-76809523D01*
X2928571Y-76714285D01*
X2928571Y-76047619D01*
X2547619Y-76047619D01*
X4928571Y-76714285D02*
X4833333Y-76809523D01*
X4547619Y-76904761D01*
X4357142Y-76904761D01*
X4071428Y-76809523D01*
X3880952Y-76619047D01*
X3785714Y-76428571D01*
X3690476Y-76047619D01*
X3690476Y-75761904D01*
X3785714Y-75380952D01*
X3880952Y-75190476D01*
X4071428Y-75000000D01*
X4357142Y-74904761D01*
X4547619Y-74904761D01*
X4833333Y-75000000D01*
X4928571Y-75095238D01*
X5785714Y-76904761D02*
X5785714Y-74904761D01*
X6452380Y-76333333D01*
X7119047Y-74904761D01*
X7119047Y-76904761D01*
X9595238Y-75571428D02*
X9595238Y-77571428D01*
X9595238Y-75666666D02*
X9785714Y-75571428D01*
X10166666Y-75571428D01*
X10357142Y-75666666D01*
X10452380Y-75761904D01*
X10547619Y-75952380D01*
X10547619Y-76523809D01*
X10452380Y-76714285D01*
X10357142Y-76809523D01*
X10166666Y-76904761D01*
X9785714Y-76904761D01*
X9595238Y-76809523D01*
X11690476Y-76904761D02*
X11500000Y-76809523D01*
X11404761Y-76714285D01*
X11309523Y-76523809D01*
X11309523Y-75952380D01*
X11404761Y-75761904D01*
X11500000Y-75666666D01*
X11690476Y-75571428D01*
X11976190Y-75571428D01*
X12166666Y-75666666D01*
X12261904Y-75761904D01*
X12357142Y-75952380D01*
X12357142Y-76523809D01*
X12261904Y-76714285D01*
X12166666Y-76809523D01*
X11976190Y-76904761D01*
X11690476Y-76904761D01*
X13023809Y-75571428D02*
X13404761Y-76904761D01*
X13785714Y-75952380D01*
X14166666Y-76904761D01*
X14547619Y-75571428D01*
X16071428Y-76809523D02*
X15880952Y-76904761D01*
X15500000Y-76904761D01*
X15309523Y-76809523D01*
X15214285Y-76619047D01*
X15214285Y-75857142D01*
X15309523Y-75666666D01*
X15500000Y-75571428D01*
X15880952Y-75571428D01*
X16071428Y-75666666D01*
X16166666Y-75857142D01*
X16166666Y-76047619D01*
X15214285Y-76238095D01*
X17023809Y-76904761D02*
X17023809Y-75571428D01*
X17023809Y-75952380D02*
X17119047Y-75761904D01*
X17214285Y-75666666D01*
X17404761Y-75571428D01*
X17595238Y-75571428D01*
X18166666Y-76809523D02*
X18452380Y-76904761D01*
X18928571Y-76904761D01*
X19119047Y-76809523D01*
X19214285Y-76714285D01*
X19309523Y-76523809D01*
X19309523Y-76333333D01*
X19214285Y-76142857D01*
X19119047Y-76047619D01*
X18928571Y-75952380D01*
X18547619Y-75857142D01*
X18357142Y-75761904D01*
X18261904Y-75666666D01*
X18166666Y-75476190D01*
X18166666Y-75285714D01*
X18261904Y-75095238D01*
X18357142Y-75000000D01*
X18547619Y-74904761D01*
X19023809Y-74904761D01*
X19309523Y-75000000D01*
X21023809Y-75571428D02*
X21023809Y-76904761D01*
X20166666Y-75571428D02*
X20166666Y-76619047D01*
X20261904Y-76809523D01*
X20452380Y-76904761D01*
X20738095Y-76904761D01*
X20928571Y-76809523D01*
X21023809Y-76714285D01*
X21976190Y-75571428D02*
X21976190Y-77571428D01*
X21976190Y-75666666D02*
X22166666Y-75571428D01*
X22547619Y-75571428D01*
X22738095Y-75666666D01*
X22833333Y-75761904D01*
X22928571Y-75952380D01*
X22928571Y-76523809D01*
X22833333Y-76714285D01*
X22738095Y-76809523D01*
X22547619Y-76904761D01*
X22166666Y-76904761D01*
X21976190Y-76809523D01*
X23785714Y-75571428D02*
X23785714Y-77571428D01*
X23785714Y-75666666D02*
X23976190Y-75571428D01*
X24357142Y-75571428D01*
X24547619Y-75666666D01*
X24642857Y-75761904D01*
X24738095Y-75952380D01*
X24738095Y-76523809D01*
X24642857Y-76714285D01*
X24547619Y-76809523D01*
X24357142Y-76904761D01*
X23976190Y-76904761D01*
X23785714Y-76809523D01*
X25880952Y-76904761D02*
X25690476Y-76809523D01*
X25595238Y-76619047D01*
X25595238Y-74904761D01*
X26452380Y-75571428D02*
X26928571Y-76904761D01*
X27404761Y-75571428D02*
X26928571Y-76904761D01*
X26738095Y-77380952D01*
X26642857Y-77476190D01*
X26452380Y-77571428D01*
X29690476Y-76142857D02*
X31214285Y-76142857D01*
X33404761Y-74904761D02*
X34071428Y-76904761D01*
X34738095Y-74904761D01*
X36452380Y-76904761D02*
X35309523Y-76904761D01*
X35880952Y-76904761D02*
X35880952Y-74904761D01*
X35690476Y-75190476D01*
X35500000Y-75380952D01*
X35309523Y-75476190D01*
X37309523Y-76714285D02*
X37404761Y-76809523D01*
X37309523Y-76904761D01*
X37214285Y-76809523D01*
X37309523Y-76714285D01*
X37309523Y-76904761D01*
X38642857Y-74904761D02*
X38833333Y-74904761D01*
X39023809Y-75000000D01*
X39119047Y-75095238D01*
X39214285Y-75285714D01*
X39309523Y-75666666D01*
X39309523Y-76142857D01*
X39214285Y-76523809D01*
X39119047Y-76714285D01*
X39023809Y-76809523D01*
X38833333Y-76904761D01*
X38642857Y-76904761D01*
X38452380Y-76809523D01*
X38357142Y-76714285D01*
X38261904Y-76523809D01*
X38166666Y-76142857D01*
X38166666Y-75666666D01*
X38261904Y-75285714D01*
X38357142Y-75095238D01*
X38452380Y-75000000D01*
X38642857Y-74904761D01*
D10*
X2380952Y-79452380D02*
X1904761Y-79452380D01*
X1904761Y-78452380D01*
X2714285Y-79452380D02*
X2714285Y-78785714D01*
X2714285Y-78452380D02*
X2666666Y-78500000D01*
X2714285Y-78547619D01*
X2761904Y-78500000D01*
X2714285Y-78452380D01*
X2714285Y-78547619D01*
X3619047Y-79404761D02*
X3523809Y-79452380D01*
X3333333Y-79452380D01*
X3238095Y-79404761D01*
X3190476Y-79357142D01*
X3142857Y-79261904D01*
X3142857Y-78976190D01*
X3190476Y-78880952D01*
X3238095Y-78833333D01*
X3333333Y-78785714D01*
X3523809Y-78785714D01*
X3619047Y-78833333D01*
X4428571Y-79404761D02*
X4333333Y-79452380D01*
X4142857Y-79452380D01*
X4047619Y-79404761D01*
X3999999Y-79309523D01*
X3999999Y-78928571D01*
X4047619Y-78833333D01*
X4142857Y-78785714D01*
X4333333Y-78785714D01*
X4428571Y-78833333D01*
X4476190Y-78928571D01*
X4476190Y-79023809D01*
X3999999Y-79119047D01*
X4904761Y-78785714D02*
X4904761Y-79452380D01*
X4904761Y-78880952D02*
X4952380Y-78833333D01*
X5047619Y-78785714D01*
X5190476Y-78785714D01*
X5285714Y-78833333D01*
X5333333Y-78928571D01*
X5333333Y-79452380D01*
X5761904Y-79404761D02*
X5857142Y-79452380D01*
X6047619Y-79452380D01*
X6142857Y-79404761D01*
X6190476Y-79309523D01*
X6190476Y-79261904D01*
X6142857Y-79166666D01*
X6047619Y-79119047D01*
X5904761Y-79119047D01*
X5809523Y-79071428D01*
X5761904Y-78976190D01*
X5761904Y-78928571D01*
X5809523Y-78833333D01*
X5904761Y-78785714D01*
X6047619Y-78785714D01*
X6142857Y-78833333D01*
X6999999Y-79404761D02*
X6904761Y-79452380D01*
X6714285Y-79452380D01*
X6619047Y-79404761D01*
X6571428Y-79309523D01*
X6571428Y-78928571D01*
X6619047Y-78833333D01*
X6714285Y-78785714D01*
X6904761Y-78785714D01*
X6999999Y-78833333D01*
X7047619Y-78928571D01*
X7047619Y-79023809D01*
X6571428Y-79119047D01*
X7904761Y-79452380D02*
X7904761Y-78452380D01*
X7904761Y-79404761D02*
X7809523Y-79452380D01*
X7619047Y-79452380D01*
X7523809Y-79404761D01*
X7476190Y-79357142D01*
X7428571Y-79261904D01*
X7428571Y-78976190D01*
X7476190Y-78880952D01*
X7523809Y-78833333D01*
X7619047Y-78785714D01*
X7809523Y-78785714D01*
X7904761Y-78833333D01*
X9571428Y-78785714D02*
X9571428Y-79452380D01*
X9142857Y-78785714D02*
X9142857Y-79309523D01*
X9190476Y-79404761D01*
X9285714Y-79452380D01*
X9428571Y-79452380D01*
X9523809Y-79404761D01*
X9571428Y-79357142D01*
X10047619Y-78785714D02*
X10047619Y-79452380D01*
X10047619Y-78880952D02*
X10095238Y-78833333D01*
X10190476Y-78785714D01*
X10333333Y-78785714D01*
X10428571Y-78833333D01*
X10476190Y-78928571D01*
X10476190Y-79452380D01*
X11380952Y-79452380D02*
X11380952Y-78452380D01*
X11380952Y-79404761D02*
X11285714Y-79452380D01*
X11095238Y-79452380D01*
X10999999Y-79404761D01*
X10952380Y-79357142D01*
X10904761Y-79261904D01*
X10904761Y-78976190D01*
X10952380Y-78880952D01*
X10999999Y-78833333D01*
X11095238Y-78785714D01*
X11285714Y-78785714D01*
X11380952Y-78833333D01*
X12238095Y-79404761D02*
X12142857Y-79452380D01*
X11952380Y-79452380D01*
X11857142Y-79404761D01*
X11809523Y-79309523D01*
X11809523Y-78928571D01*
X11857142Y-78833333D01*
X11952380Y-78785714D01*
X12142857Y-78785714D01*
X12238095Y-78833333D01*
X12285714Y-78928571D01*
X12285714Y-79023809D01*
X11809523Y-79119047D01*
X12714285Y-79452380D02*
X12714285Y-78785714D01*
X12714285Y-78976190D02*
X12761904Y-78880952D01*
X12809523Y-78833333D01*
X12904761Y-78785714D01*
X12999999Y-78785714D01*
X14666666Y-79357142D02*
X14619047Y-79404761D01*
X14476190Y-79452380D01*
X14380952Y-79452380D01*
X14238095Y-79404761D01*
X14142857Y-79309523D01*
X14095238Y-79214285D01*
X14047619Y-79023809D01*
X14047619Y-78880952D01*
X14095238Y-78690476D01*
X14142857Y-78595238D01*
X14238095Y-78500000D01*
X14380952Y-78452380D01*
X14476190Y-78452380D01*
X14619047Y-78500000D01*
X14666666Y-78547619D01*
X15095238Y-78928571D02*
X15428571Y-78928571D01*
X15571428Y-79452380D02*
X15095238Y-79452380D01*
X15095238Y-78452380D01*
X15571428Y-78452380D01*
X16571428Y-79452380D02*
X16238095Y-78976190D01*
X15999999Y-79452380D02*
X15999999Y-78452380D01*
X16380952Y-78452380D01*
X16476190Y-78500000D01*
X16523809Y-78547619D01*
X16571428Y-78642857D01*
X16571428Y-78785714D01*
X16523809Y-78880952D01*
X16476190Y-78928571D01*
X16380952Y-78976190D01*
X15999999Y-78976190D01*
X16999999Y-79452380D02*
X16999999Y-78452380D01*
X17571428Y-79452380D01*
X17571428Y-78452380D01*
X18047619Y-79071428D02*
X18809523Y-79071428D01*
X19476190Y-78452380D02*
X19666666Y-78452380D01*
X19761904Y-78500000D01*
X19857142Y-78595238D01*
X19904761Y-78785714D01*
X19904761Y-79119047D01*
X19857142Y-79309523D01*
X19761904Y-79404761D01*
X19666666Y-79452380D01*
X19476190Y-79452380D01*
X19380952Y-79404761D01*
X19285714Y-79309523D01*
X19238095Y-79119047D01*
X19238095Y-78785714D01*
X19285714Y-78595238D01*
X19380952Y-78500000D01*
X19476190Y-78452380D01*
X20333333Y-79452380D02*
X20333333Y-78452380D01*
X20333333Y-78928571D02*
X20904761Y-78928571D01*
X20904761Y-79452380D02*
X20904761Y-78452380D01*
X21857142Y-79452380D02*
X21380952Y-79452380D01*
X21380952Y-78452380D01*
X22190476Y-79071428D02*
X22952380Y-79071428D01*
X23333333Y-78452380D02*
X23571428Y-79452380D01*
X23761904Y-78738095D01*
X23952380Y-79452380D01*
X24190476Y-78452380D01*
X25238095Y-78785714D02*
X25476190Y-79452380D01*
X25714285Y-78785714D01*
X26047619Y-78547619D02*
X26095238Y-78500000D01*
X26190476Y-78452380D01*
X26428571Y-78452380D01*
X26523809Y-78500000D01*
X26571428Y-78547619D01*
X26619047Y-78642857D01*
X26619047Y-78738095D01*
X26571428Y-78880952D01*
X25999999Y-79452380D01*
X26619047Y-79452380D01*
X27952380Y-79452380D02*
X27857142Y-79404761D01*
X27809523Y-79357142D01*
X27761904Y-79261904D01*
X27761904Y-78976190D01*
X27809523Y-78880952D01*
X27857142Y-78833333D01*
X27952380Y-78785714D01*
X28095238Y-78785714D01*
X28190476Y-78833333D01*
X28238095Y-78880952D01*
X28285714Y-78976190D01*
X28285714Y-79261904D01*
X28238095Y-79357142D01*
X28190476Y-79404761D01*
X28095238Y-79452380D01*
X27952380Y-79452380D01*
X28714285Y-79452380D02*
X28714285Y-78785714D01*
X28714285Y-78976190D02*
X28761904Y-78880952D01*
X28809523Y-78833333D01*
X28904761Y-78785714D01*
X28999999Y-78785714D01*
X30238095Y-79452380D02*
X30142857Y-79404761D01*
X30095238Y-79309523D01*
X30095238Y-78452380D01*
X31047619Y-79452380D02*
X31047619Y-78928571D01*
X30999999Y-78833333D01*
X30904761Y-78785714D01*
X30714285Y-78785714D01*
X30619047Y-78833333D01*
X31047619Y-79404761D02*
X30952380Y-79452380D01*
X30714285Y-79452380D01*
X30619047Y-79404761D01*
X30571428Y-79309523D01*
X30571428Y-79214285D01*
X30619047Y-79119047D01*
X30714285Y-79071428D01*
X30952380Y-79071428D01*
X31047619Y-79023809D01*
X31380952Y-78785714D02*
X31761904Y-78785714D01*
X31523809Y-78452380D02*
X31523809Y-79309523D01*
X31571428Y-79404761D01*
X31666666Y-79452380D01*
X31761904Y-79452380D01*
X32476190Y-79404761D02*
X32380952Y-79452380D01*
X32190476Y-79452380D01*
X32095238Y-79404761D01*
X32047619Y-79309523D01*
X32047619Y-78928571D01*
X32095238Y-78833333D01*
X32190476Y-78785714D01*
X32380952Y-78785714D01*
X32476190Y-78833333D01*
X32523809Y-78928571D01*
X32523809Y-79023809D01*
X32047619Y-79119047D01*
X32952380Y-79452380D02*
X32952380Y-78785714D01*
X32952380Y-78976190D02*
X32999999Y-78880952D01*
X33047619Y-78833333D01*
X33142857Y-78785714D01*
X33238095Y-78785714D01*
D11*
X69380952Y-89904761D02*
X70523809Y-89904761D01*
X69952380Y-91904761D02*
X69952380Y-89904761D01*
X71571428Y-89904761D02*
X71952380Y-89904761D01*
X72142857Y-90000000D01*
X72333333Y-90190476D01*
X72428571Y-90571428D01*
X72428571Y-91238095D01*
X72333333Y-91619047D01*
X72142857Y-91809523D01*
X71952380Y-91904761D01*
X71571428Y-91904761D01*
X71380952Y-91809523D01*
X71190476Y-91619047D01*
X71095238Y-91238095D01*
X71095238Y-90571428D01*
X71190476Y-90190476D01*
X71380952Y-90000000D01*
X71571428Y-89904761D01*
X73285714Y-91904761D02*
X73285714Y-89904761D01*
X74047619Y-89904761D01*
X74238095Y-90000000D01*
X74333333Y-90095238D01*
X74428571Y-90285714D01*
X74428571Y-90571428D01*
X74333333Y-90761904D01*
X74238095Y-90857142D01*
X74047619Y-90952380D01*
X73285714Y-90952380D01*
D12*
%TO.C,C1*%
X45590000Y-55711252D02*
X45590000Y-54288748D01*
X47410000Y-55711252D02*
X47410000Y-54288748D01*
%TO.C,C2*%
X47410000Y-22211252D02*
X47410000Y-20788748D01*
X45590000Y-22211252D02*
X45590000Y-20788748D01*
%TO.C,C3*%
X55410000Y-55711252D02*
X55410000Y-54288748D01*
X53590000Y-55711252D02*
X53590000Y-54288748D01*
%TO.C,C4*%
X53590000Y-22211252D02*
X53590000Y-20788748D01*
X55410000Y-22211252D02*
X55410000Y-20788748D01*
%TO.C,C5*%
X49590000Y-55711252D02*
X49590000Y-54288748D01*
X51410000Y-55711252D02*
X51410000Y-54288748D01*
%TO.C,C6*%
X51410000Y-22211252D02*
X51410000Y-20788748D01*
X49590000Y-22211252D02*
X49590000Y-20788748D01*
%TO.C,C7*%
X62788748Y-50910000D02*
X64211252Y-50910000D01*
X62788748Y-49090000D02*
X64211252Y-49090000D01*
%TO.C,C8*%
X62788748Y-15590000D02*
X64211252Y-15590000D01*
X62788748Y-17410000D02*
X64211252Y-17410000D01*
%TO.C,C9*%
X42788748Y-42910000D02*
X44211252Y-42910000D01*
X42788748Y-41090000D02*
X44211252Y-41090000D01*
%TO.C,C10*%
X42788748Y-3590000D02*
X44211252Y-3590000D01*
X42788748Y-5410000D02*
X44211252Y-5410000D01*
%TO.C,C11*%
X42788748Y-46910000D02*
X44211252Y-46910000D01*
X42788748Y-45090000D02*
X44211252Y-45090000D01*
%TO.C,C12*%
X42788748Y-9410000D02*
X44211252Y-9410000D01*
X42788748Y-7590000D02*
X44211252Y-7590000D01*
%TO.C,C13*%
X42788748Y-11590000D02*
X44211252Y-11590000D01*
X42788748Y-13410000D02*
X44211252Y-13410000D01*
%TO.C,D1*%
X42250000Y-67700000D02*
X48750000Y-67700000D01*
X42250000Y-67700000D02*
X42250000Y-76100000D01*
X48750000Y-67700000D02*
X48750000Y-76100000D01*
%TO.C,D2*%
X66250000Y-67700000D02*
X66250000Y-76100000D01*
X59750000Y-67700000D02*
X59750000Y-76100000D01*
X59750000Y-67700000D02*
X66250000Y-67700000D01*
%TO.C,J1*%
X58700000Y-91400000D02*
X59200000Y-91400000D01*
X58700000Y-90660000D02*
X58700000Y-91400000D01*
X64600000Y-84840000D02*
X64600000Y-91160000D01*
X58940000Y-84840000D02*
X58940000Y-91160000D01*
X63830000Y-91160000D02*
X64600000Y-91160000D01*
X61290000Y-91160000D02*
X62250000Y-91160000D01*
X58940000Y-91160000D02*
X59710000Y-91160000D01*
X58940000Y-84840000D02*
X64600000Y-84840000D01*
X58940000Y-85300000D02*
X64600000Y-85300000D01*
X63830000Y-90600000D02*
X64600000Y-90600000D01*
X61290000Y-90600000D02*
X62250000Y-90600000D01*
X58940000Y-90600000D02*
X59710000Y-90600000D01*
%TO.C,J2*%
X40900000Y-79600000D02*
X43500000Y-79600000D01*
X40900000Y-94300000D02*
X40900000Y-79600000D01*
X50100000Y-79600000D02*
X50100000Y-81500000D01*
X47400000Y-79600000D02*
X50100000Y-79600000D01*
X50100000Y-94300000D02*
X40900000Y-94300000D01*
X50100000Y-85500000D02*
X50100000Y-94300000D01*
X40700000Y-80450000D02*
X40700000Y-79400000D01*
X41750000Y-79400000D02*
X40700000Y-79400000D01*
%TO.C,J3*%
X74850000Y-24370000D02*
X74850000Y-26500000D01*
X77000000Y-24370000D02*
X74850000Y-24370000D01*
X72290000Y-32960000D02*
X72290000Y-30250000D01*
X75150000Y-32960000D02*
X72290000Y-32960000D01*
X75150000Y-35830000D02*
X75150000Y-32960000D01*
X81350000Y-35830000D02*
X75150000Y-35830000D01*
X81350000Y-30250000D02*
X81350000Y-35830000D01*
X72290000Y-27540000D02*
X72290000Y-30250000D01*
X75150000Y-27540000D02*
X72290000Y-27540000D01*
X75150000Y-24670000D02*
X75150000Y-27540000D01*
X81350000Y-24670000D02*
X75150000Y-24670000D01*
X81350000Y-30250000D02*
X81350000Y-24670000D01*
%TO.C,J4*%
X81400000Y-49800000D02*
X81400000Y-49300000D01*
X80660000Y-49800000D02*
X81400000Y-49800000D01*
X74840000Y-38820000D02*
X81160000Y-38820000D01*
X74840000Y-49560000D02*
X81160000Y-49560000D01*
X81160000Y-49560000D02*
X81160000Y-38820000D01*
X74840000Y-49560000D02*
X74840000Y-38820000D01*
X75300000Y-49560000D02*
X75300000Y-38820000D01*
X80600000Y-49560000D02*
X80600000Y-38820000D01*
D13*
%TO.C,L1*%
X37100000Y-55900000D02*
X37100000Y-55900000D01*
X37100000Y-56100000D02*
X37100000Y-56100000D01*
D14*
X9000000Y-37050000D02*
X9000000Y-45925000D01*
X28800000Y-37050000D02*
X9000000Y-37050000D01*
X28800000Y-64950000D02*
X28800000Y-37050000D01*
X9000000Y-64950000D02*
X28800000Y-64950000D01*
X9000000Y-56075000D02*
X9000000Y-64950000D01*
D13*
X37100000Y-56100000D02*
G75*
G03*
X37100000Y-55900000I0J100000D01*
G01*
X37100000Y-55900000D02*
G75*
G03*
X37100000Y-56100000I0J-100000D01*
G01*
D14*
%TO.C,L2*%
X9000000Y-22575000D02*
X9000000Y-31450000D01*
X9000000Y-31450000D02*
X28800000Y-31450000D01*
X28800000Y-31450000D02*
X28800000Y-3550000D01*
X28800000Y-3550000D02*
X9000000Y-3550000D01*
X9000000Y-3550000D02*
X9000000Y-12425000D01*
D13*
X37100000Y-22600000D02*
X37100000Y-22600000D01*
X37100000Y-22400000D02*
X37100000Y-22400000D01*
X37100000Y-22400000D02*
G75*
G03*
X37100000Y-22600000I0J-100000D01*
G01*
X37100000Y-22600000D02*
G75*
G03*
X37100000Y-22400000I0J100000D01*
G01*
D12*
%TO.C,R1*%
X65765000Y-60227064D02*
X65765000Y-59772936D01*
X67235000Y-60227064D02*
X67235000Y-59772936D01*
%TO.C,R2*%
X67235000Y-27227064D02*
X67235000Y-26772936D01*
X65765000Y-27227064D02*
X65765000Y-26772936D01*
%TO.C,R3*%
X72235000Y-53772936D02*
X72235000Y-54227064D01*
X70765000Y-53772936D02*
X70765000Y-54227064D01*
%TO.C,R4*%
X70235000Y-54227064D02*
X70235000Y-53772936D01*
X68765000Y-54227064D02*
X68765000Y-53772936D01*
%TO.C,R5*%
X72235000Y-20272936D02*
X72235000Y-20727064D01*
X70765000Y-20272936D02*
X70765000Y-20727064D01*
%TO.C,R6*%
X70235000Y-20727064D02*
X70235000Y-20272936D01*
X68765000Y-20727064D02*
X68765000Y-20272936D01*
%TO.C,U1*%
X62500000Y-53440000D02*
X60700000Y-53440000D01*
X62500000Y-53440000D02*
X63300000Y-53440000D01*
X62500000Y-56560000D02*
X61700000Y-56560000D01*
X62500000Y-56560000D02*
X63300000Y-56560000D01*
%TO.C,U2*%
X62500000Y-23060000D02*
X63300000Y-23060000D01*
X62500000Y-23060000D02*
X61700000Y-23060000D01*
X62500000Y-19940000D02*
X63300000Y-19940000D01*
X62500000Y-19940000D02*
X60700000Y-19940000D01*
D13*
%TO.C,SW1*%
X78000000Y-81300000D02*
X78000000Y-81300000D01*
X78000000Y-81500000D02*
X78000000Y-81500000D01*
D14*
X80000000Y-80300000D02*
X76000000Y-80300000D01*
X80000000Y-68700000D02*
X80000000Y-80300000D01*
X76000000Y-68700000D02*
X80000000Y-68700000D01*
X76000000Y-80300000D02*
X76000000Y-68700000D01*
D13*
X78000000Y-81300000D02*
G75*
G02*
X78000000Y-81500000I0J-100000D01*
G01*
X78000000Y-81500000D02*
G75*
G02*
X78000000Y-81300000I0J100000D01*
G01*
%TO.C,C1*%
D10*
X45007142Y-55166666D02*
X45054761Y-55214285D01*
X45102380Y-55357142D01*
X45102380Y-55452380D01*
X45054761Y-55595238D01*
X44959523Y-55690476D01*
X44864285Y-55738095D01*
X44673809Y-55785714D01*
X44530952Y-55785714D01*
X44340476Y-55738095D01*
X44245238Y-55690476D01*
X44150000Y-55595238D01*
X44102380Y-55452380D01*
X44102380Y-55357142D01*
X44150000Y-55214285D01*
X44197619Y-55166666D01*
X45102380Y-54214285D02*
X45102380Y-54785714D01*
X45102380Y-54500000D02*
X44102380Y-54500000D01*
X44245238Y-54595238D01*
X44340476Y-54690476D01*
X44388095Y-54785714D01*
%TO.C,C2*%
X45007142Y-21666666D02*
X45054761Y-21714285D01*
X45102380Y-21857142D01*
X45102380Y-21952380D01*
X45054761Y-22095238D01*
X44959523Y-22190476D01*
X44864285Y-22238095D01*
X44673809Y-22285714D01*
X44530952Y-22285714D01*
X44340476Y-22238095D01*
X44245238Y-22190476D01*
X44150000Y-22095238D01*
X44102380Y-21952380D01*
X44102380Y-21857142D01*
X44150000Y-21714285D01*
X44197619Y-21666666D01*
X44197619Y-21285714D02*
X44150000Y-21238095D01*
X44102380Y-21142857D01*
X44102380Y-20904761D01*
X44150000Y-20809523D01*
X44197619Y-20761904D01*
X44292857Y-20714285D01*
X44388095Y-20714285D01*
X44530952Y-20761904D01*
X45102380Y-21333333D01*
X45102380Y-20714285D01*
%TO.C,C3*%
X53007142Y-55166666D02*
X53054761Y-55214285D01*
X53102380Y-55357142D01*
X53102380Y-55452380D01*
X53054761Y-55595238D01*
X52959523Y-55690476D01*
X52864285Y-55738095D01*
X52673809Y-55785714D01*
X52530952Y-55785714D01*
X52340476Y-55738095D01*
X52245238Y-55690476D01*
X52150000Y-55595238D01*
X52102380Y-55452380D01*
X52102380Y-55357142D01*
X52150000Y-55214285D01*
X52197619Y-55166666D01*
X52102380Y-54833333D02*
X52102380Y-54214285D01*
X52483333Y-54547619D01*
X52483333Y-54404761D01*
X52530952Y-54309523D01*
X52578571Y-54261904D01*
X52673809Y-54214285D01*
X52911904Y-54214285D01*
X53007142Y-54261904D01*
X53054761Y-54309523D01*
X53102380Y-54404761D01*
X53102380Y-54690476D01*
X53054761Y-54785714D01*
X53007142Y-54833333D01*
%TO.C,C4*%
X53007142Y-21666666D02*
X53054761Y-21714285D01*
X53102380Y-21857142D01*
X53102380Y-21952380D01*
X53054761Y-22095238D01*
X52959523Y-22190476D01*
X52864285Y-22238095D01*
X52673809Y-22285714D01*
X52530952Y-22285714D01*
X52340476Y-22238095D01*
X52245238Y-22190476D01*
X52150000Y-22095238D01*
X52102380Y-21952380D01*
X52102380Y-21857142D01*
X52150000Y-21714285D01*
X52197619Y-21666666D01*
X52435714Y-20809523D02*
X53102380Y-20809523D01*
X52054761Y-21047619D02*
X52769047Y-21285714D01*
X52769047Y-20666666D01*
%TO.C,C5*%
X49007142Y-55166666D02*
X49054761Y-55214285D01*
X49102380Y-55357142D01*
X49102380Y-55452380D01*
X49054761Y-55595238D01*
X48959523Y-55690476D01*
X48864285Y-55738095D01*
X48673809Y-55785714D01*
X48530952Y-55785714D01*
X48340476Y-55738095D01*
X48245238Y-55690476D01*
X48150000Y-55595238D01*
X48102380Y-55452380D01*
X48102380Y-55357142D01*
X48150000Y-55214285D01*
X48197619Y-55166666D01*
X48102380Y-54261904D02*
X48102380Y-54738095D01*
X48578571Y-54785714D01*
X48530952Y-54738095D01*
X48483333Y-54642857D01*
X48483333Y-54404761D01*
X48530952Y-54309523D01*
X48578571Y-54261904D01*
X48673809Y-54214285D01*
X48911904Y-54214285D01*
X49007142Y-54261904D01*
X49054761Y-54309523D01*
X49102380Y-54404761D01*
X49102380Y-54642857D01*
X49054761Y-54738095D01*
X49007142Y-54785714D01*
%TO.C,C6*%
X49007142Y-21666666D02*
X49054761Y-21714285D01*
X49102380Y-21857142D01*
X49102380Y-21952380D01*
X49054761Y-22095238D01*
X48959523Y-22190476D01*
X48864285Y-22238095D01*
X48673809Y-22285714D01*
X48530952Y-22285714D01*
X48340476Y-22238095D01*
X48245238Y-22190476D01*
X48150000Y-22095238D01*
X48102380Y-21952380D01*
X48102380Y-21857142D01*
X48150000Y-21714285D01*
X48197619Y-21666666D01*
X48102380Y-20809523D02*
X48102380Y-21000000D01*
X48150000Y-21095238D01*
X48197619Y-21142857D01*
X48340476Y-21238095D01*
X48530952Y-21285714D01*
X48911904Y-21285714D01*
X49007142Y-21238095D01*
X49054761Y-21190476D01*
X49102380Y-21095238D01*
X49102380Y-20904761D01*
X49054761Y-20809523D01*
X49007142Y-20761904D01*
X48911904Y-20714285D01*
X48673809Y-20714285D01*
X48578571Y-20761904D01*
X48530952Y-20809523D01*
X48483333Y-20904761D01*
X48483333Y-21095238D01*
X48530952Y-21190476D01*
X48578571Y-21238095D01*
X48673809Y-21285714D01*
%TO.C,C7*%
X63333333Y-48507142D02*
X63285714Y-48554761D01*
X63142857Y-48602380D01*
X63047619Y-48602380D01*
X62904761Y-48554761D01*
X62809523Y-48459523D01*
X62761904Y-48364285D01*
X62714285Y-48173809D01*
X62714285Y-48030952D01*
X62761904Y-47840476D01*
X62809523Y-47745238D01*
X62904761Y-47650000D01*
X63047619Y-47602380D01*
X63142857Y-47602380D01*
X63285714Y-47650000D01*
X63333333Y-47697619D01*
X63666666Y-47602380D02*
X64333333Y-47602380D01*
X63904761Y-48602380D01*
%TO.C,C8*%
X63333333Y-15007142D02*
X63285714Y-15054761D01*
X63142857Y-15102380D01*
X63047619Y-15102380D01*
X62904761Y-15054761D01*
X62809523Y-14959523D01*
X62761904Y-14864285D01*
X62714285Y-14673809D01*
X62714285Y-14530952D01*
X62761904Y-14340476D01*
X62809523Y-14245238D01*
X62904761Y-14150000D01*
X63047619Y-14102380D01*
X63142857Y-14102380D01*
X63285714Y-14150000D01*
X63333333Y-14197619D01*
X63904761Y-14530952D02*
X63809523Y-14483333D01*
X63761904Y-14435714D01*
X63714285Y-14340476D01*
X63714285Y-14292857D01*
X63761904Y-14197619D01*
X63809523Y-14150000D01*
X63904761Y-14102380D01*
X64095238Y-14102380D01*
X64190476Y-14150000D01*
X64238095Y-14197619D01*
X64285714Y-14292857D01*
X64285714Y-14340476D01*
X64238095Y-14435714D01*
X64190476Y-14483333D01*
X64095238Y-14530952D01*
X63904761Y-14530952D01*
X63809523Y-14578571D01*
X63761904Y-14626190D01*
X63714285Y-14721428D01*
X63714285Y-14911904D01*
X63761904Y-15007142D01*
X63809523Y-15054761D01*
X63904761Y-15102380D01*
X64095238Y-15102380D01*
X64190476Y-15054761D01*
X64238095Y-15007142D01*
X64285714Y-14911904D01*
X64285714Y-14721428D01*
X64238095Y-14626190D01*
X64190476Y-14578571D01*
X64095238Y-14530952D01*
%TO.C,C9*%
X43333333Y-40507142D02*
X43285714Y-40554761D01*
X43142857Y-40602380D01*
X43047619Y-40602380D01*
X42904761Y-40554761D01*
X42809523Y-40459523D01*
X42761904Y-40364285D01*
X42714285Y-40173809D01*
X42714285Y-40030952D01*
X42761904Y-39840476D01*
X42809523Y-39745238D01*
X42904761Y-39650000D01*
X43047619Y-39602380D01*
X43142857Y-39602380D01*
X43285714Y-39650000D01*
X43333333Y-39697619D01*
X43809523Y-40602380D02*
X44000000Y-40602380D01*
X44095238Y-40554761D01*
X44142857Y-40507142D01*
X44238095Y-40364285D01*
X44285714Y-40173809D01*
X44285714Y-39792857D01*
X44238095Y-39697619D01*
X44190476Y-39650000D01*
X44095238Y-39602380D01*
X43904761Y-39602380D01*
X43809523Y-39650000D01*
X43761904Y-39697619D01*
X43714285Y-39792857D01*
X43714285Y-40030952D01*
X43761904Y-40126190D01*
X43809523Y-40173809D01*
X43904761Y-40221428D01*
X44095238Y-40221428D01*
X44190476Y-40173809D01*
X44238095Y-40126190D01*
X44285714Y-40030952D01*
%TO.C,C10*%
X42857142Y-3007142D02*
X42809523Y-3054761D01*
X42666666Y-3102380D01*
X42571428Y-3102380D01*
X42428571Y-3054761D01*
X42333333Y-2959523D01*
X42285714Y-2864285D01*
X42238095Y-2673809D01*
X42238095Y-2530952D01*
X42285714Y-2340476D01*
X42333333Y-2245238D01*
X42428571Y-2150000D01*
X42571428Y-2102380D01*
X42666666Y-2102380D01*
X42809523Y-2150000D01*
X42857142Y-2197619D01*
X43809523Y-3102380D02*
X43238095Y-3102380D01*
X43523809Y-3102380D02*
X43523809Y-2102380D01*
X43428571Y-2245238D01*
X43333333Y-2340476D01*
X43238095Y-2388095D01*
X44428571Y-2102380D02*
X44523809Y-2102380D01*
X44619047Y-2150000D01*
X44666666Y-2197619D01*
X44714285Y-2292857D01*
X44761904Y-2483333D01*
X44761904Y-2721428D01*
X44714285Y-2911904D01*
X44666666Y-3007142D01*
X44619047Y-3054761D01*
X44523809Y-3102380D01*
X44428571Y-3102380D01*
X44333333Y-3054761D01*
X44285714Y-3007142D01*
X44238095Y-2911904D01*
X44190476Y-2721428D01*
X44190476Y-2483333D01*
X44238095Y-2292857D01*
X44285714Y-2197619D01*
X44333333Y-2150000D01*
X44428571Y-2102380D01*
%TO.C,C11*%
X42857142Y-44507142D02*
X42809523Y-44554761D01*
X42666666Y-44602380D01*
X42571428Y-44602380D01*
X42428571Y-44554761D01*
X42333333Y-44459523D01*
X42285714Y-44364285D01*
X42238095Y-44173809D01*
X42238095Y-44030952D01*
X42285714Y-43840476D01*
X42333333Y-43745238D01*
X42428571Y-43650000D01*
X42571428Y-43602380D01*
X42666666Y-43602380D01*
X42809523Y-43650000D01*
X42857142Y-43697619D01*
X43809523Y-44602380D02*
X43238095Y-44602380D01*
X43523809Y-44602380D02*
X43523809Y-43602380D01*
X43428571Y-43745238D01*
X43333333Y-43840476D01*
X43238095Y-43888095D01*
X44761904Y-44602380D02*
X44190476Y-44602380D01*
X44476190Y-44602380D02*
X44476190Y-43602380D01*
X44380952Y-43745238D01*
X44285714Y-43840476D01*
X44190476Y-43888095D01*
%TO.C,C12*%
X42857142Y-7007142D02*
X42809523Y-7054761D01*
X42666666Y-7102380D01*
X42571428Y-7102380D01*
X42428571Y-7054761D01*
X42333333Y-6959523D01*
X42285714Y-6864285D01*
X42238095Y-6673809D01*
X42238095Y-6530952D01*
X42285714Y-6340476D01*
X42333333Y-6245238D01*
X42428571Y-6150000D01*
X42571428Y-6102380D01*
X42666666Y-6102380D01*
X42809523Y-6150000D01*
X42857142Y-6197619D01*
X43809523Y-7102380D02*
X43238095Y-7102380D01*
X43523809Y-7102380D02*
X43523809Y-6102380D01*
X43428571Y-6245238D01*
X43333333Y-6340476D01*
X43238095Y-6388095D01*
X44190476Y-6197619D02*
X44238095Y-6150000D01*
X44333333Y-6102380D01*
X44571428Y-6102380D01*
X44666666Y-6150000D01*
X44714285Y-6197619D01*
X44761904Y-6292857D01*
X44761904Y-6388095D01*
X44714285Y-6530952D01*
X44142857Y-7102380D01*
X44761904Y-7102380D01*
%TO.C,C13*%
X42857142Y-11007142D02*
X42809523Y-11054761D01*
X42666666Y-11102380D01*
X42571428Y-11102380D01*
X42428571Y-11054761D01*
X42333333Y-10959523D01*
X42285714Y-10864285D01*
X42238095Y-10673809D01*
X42238095Y-10530952D01*
X42285714Y-10340476D01*
X42333333Y-10245238D01*
X42428571Y-10150000D01*
X42571428Y-10102380D01*
X42666666Y-10102380D01*
X42809523Y-10150000D01*
X42857142Y-10197619D01*
X43809523Y-11102380D02*
X43238095Y-11102380D01*
X43523809Y-11102380D02*
X43523809Y-10102380D01*
X43428571Y-10245238D01*
X43333333Y-10340476D01*
X43238095Y-10388095D01*
X44142857Y-10102380D02*
X44761904Y-10102380D01*
X44428571Y-10483333D01*
X44571428Y-10483333D01*
X44666666Y-10530952D01*
X44714285Y-10578571D01*
X44761904Y-10673809D01*
X44761904Y-10911904D01*
X44714285Y-11007142D01*
X44666666Y-11054761D01*
X44571428Y-11102380D01*
X44285714Y-11102380D01*
X44190476Y-11054761D01*
X44142857Y-11007142D01*
%TO.C,D1*%
X50052380Y-73238095D02*
X49052380Y-73238095D01*
X49052380Y-73000000D01*
X49100000Y-72857142D01*
X49195238Y-72761904D01*
X49290476Y-72714285D01*
X49480952Y-72666666D01*
X49623809Y-72666666D01*
X49814285Y-72714285D01*
X49909523Y-72761904D01*
X50004761Y-72857142D01*
X50052380Y-73000000D01*
X50052380Y-73238095D01*
X50052380Y-71714285D02*
X50052380Y-72285714D01*
X50052380Y-72000000D02*
X49052380Y-72000000D01*
X49195238Y-72095238D01*
X49290476Y-72190476D01*
X49338095Y-72285714D01*
%TO.C,D2*%
X67552380Y-73238095D02*
X66552380Y-73238095D01*
X66552380Y-73000000D01*
X66600000Y-72857142D01*
X66695238Y-72761904D01*
X66790476Y-72714285D01*
X66980952Y-72666666D01*
X67123809Y-72666666D01*
X67314285Y-72714285D01*
X67409523Y-72761904D01*
X67504761Y-72857142D01*
X67552380Y-73000000D01*
X67552380Y-73238095D01*
X66647619Y-72285714D02*
X66600000Y-72238095D01*
X66552380Y-72142857D01*
X66552380Y-71904761D01*
X66600000Y-71809523D01*
X66647619Y-71761904D01*
X66742857Y-71714285D01*
X66838095Y-71714285D01*
X66980952Y-71761904D01*
X67552380Y-72333333D01*
X67552380Y-71714285D01*
%TO.C,J1*%
X61436666Y-83292380D02*
X61436666Y-84006666D01*
X61389047Y-84149523D01*
X61293809Y-84244761D01*
X61150952Y-84292380D01*
X61055714Y-84292380D01*
X62436666Y-84292380D02*
X61865238Y-84292380D01*
X62150952Y-84292380D02*
X62150952Y-83292380D01*
X62055714Y-83435238D01*
X61960476Y-83530476D01*
X61865238Y-83578095D01*
%TO.C,J2*%
X50702380Y-89283333D02*
X51416666Y-89283333D01*
X51559523Y-89330952D01*
X51654761Y-89426190D01*
X51702380Y-89569047D01*
X51702380Y-89664285D01*
X50797619Y-88854761D02*
X50750000Y-88807142D01*
X50702380Y-88711904D01*
X50702380Y-88473809D01*
X50750000Y-88378571D01*
X50797619Y-88330952D01*
X50892857Y-88283333D01*
X50988095Y-88283333D01*
X51130952Y-88330952D01*
X51702380Y-88902380D01*
X51702380Y-88283333D01*
%TO.C,J3*%
X77916666Y-23032380D02*
X77916666Y-23746666D01*
X77869047Y-23889523D01*
X77773809Y-23984761D01*
X77630952Y-24032380D01*
X77535714Y-24032380D01*
X78297619Y-23032380D02*
X78916666Y-23032380D01*
X78583333Y-23413333D01*
X78726190Y-23413333D01*
X78821428Y-23460952D01*
X78869047Y-23508571D01*
X78916666Y-23603809D01*
X78916666Y-23841904D01*
X78869047Y-23937142D01*
X78821428Y-23984761D01*
X78726190Y-24032380D01*
X78440476Y-24032380D01*
X78345238Y-23984761D01*
X78297619Y-23937142D01*
%TO.C,J4*%
X73292380Y-44523333D02*
X74006666Y-44523333D01*
X74149523Y-44570952D01*
X74244761Y-44666190D01*
X74292380Y-44809047D01*
X74292380Y-44904285D01*
X73625714Y-43618571D02*
X74292380Y-43618571D01*
X73244761Y-43856666D02*
X73959047Y-44094761D01*
X73959047Y-43475714D01*
%TO.C,L1*%
D15*
X6574523Y-51211666D02*
X6574523Y-51816428D01*
X5304523Y-51816428D01*
X6574523Y-50123095D02*
X6574523Y-50848809D01*
X6574523Y-50485952D02*
X5304523Y-50485952D01*
X5485952Y-50606904D01*
X5606904Y-50727857D01*
X5667380Y-50848809D01*
%TO.C,L2*%
X6574523Y-17711666D02*
X6574523Y-18316428D01*
X5304523Y-18316428D01*
X5425476Y-17348809D02*
X5365000Y-17288333D01*
X5304523Y-17167380D01*
X5304523Y-16865000D01*
X5365000Y-16744047D01*
X5425476Y-16683571D01*
X5546428Y-16623095D01*
X5667380Y-16623095D01*
X5848809Y-16683571D01*
X6574523Y-17409285D01*
X6574523Y-16623095D01*
%TO.C,R1*%
D10*
X65302380Y-60166666D02*
X64826190Y-60500000D01*
X65302380Y-60738095D02*
X64302380Y-60738095D01*
X64302380Y-60357142D01*
X64350000Y-60261904D01*
X64397619Y-60214285D01*
X64492857Y-60166666D01*
X64635714Y-60166666D01*
X64730952Y-60214285D01*
X64778571Y-60261904D01*
X64826190Y-60357142D01*
X64826190Y-60738095D01*
X65302380Y-59214285D02*
X65302380Y-59785714D01*
X65302380Y-59500000D02*
X64302380Y-59500000D01*
X64445238Y-59595238D01*
X64540476Y-59690476D01*
X64588095Y-59785714D01*
%TO.C,R2*%
X65302380Y-27166666D02*
X64826190Y-27500000D01*
X65302380Y-27738095D02*
X64302380Y-27738095D01*
X64302380Y-27357142D01*
X64350000Y-27261904D01*
X64397619Y-27214285D01*
X64492857Y-27166666D01*
X64635714Y-27166666D01*
X64730952Y-27214285D01*
X64778571Y-27261904D01*
X64826190Y-27357142D01*
X64826190Y-27738095D01*
X64397619Y-26785714D02*
X64350000Y-26738095D01*
X64302380Y-26642857D01*
X64302380Y-26404761D01*
X64350000Y-26309523D01*
X64397619Y-26261904D01*
X64492857Y-26214285D01*
X64588095Y-26214285D01*
X64730952Y-26261904D01*
X65302380Y-26833333D01*
X65302380Y-26214285D01*
%TO.C,R3*%
X73602380Y-54166666D02*
X73126190Y-54500000D01*
X73602380Y-54738095D02*
X72602380Y-54738095D01*
X72602380Y-54357142D01*
X72650000Y-54261904D01*
X72697619Y-54214285D01*
X72792857Y-54166666D01*
X72935714Y-54166666D01*
X73030952Y-54214285D01*
X73078571Y-54261904D01*
X73126190Y-54357142D01*
X73126190Y-54738095D01*
X72602380Y-53833333D02*
X72602380Y-53214285D01*
X72983333Y-53547619D01*
X72983333Y-53404761D01*
X73030952Y-53309523D01*
X73078571Y-53261904D01*
X73173809Y-53214285D01*
X73411904Y-53214285D01*
X73507142Y-53261904D01*
X73554761Y-53309523D01*
X73602380Y-53404761D01*
X73602380Y-53690476D01*
X73554761Y-53785714D01*
X73507142Y-53833333D01*
%TO.C,R4*%
X68302380Y-54166666D02*
X67826190Y-54500000D01*
X68302380Y-54738095D02*
X67302380Y-54738095D01*
X67302380Y-54357142D01*
X67350000Y-54261904D01*
X67397619Y-54214285D01*
X67492857Y-54166666D01*
X67635714Y-54166666D01*
X67730952Y-54214285D01*
X67778571Y-54261904D01*
X67826190Y-54357142D01*
X67826190Y-54738095D01*
X67635714Y-53309523D02*
X68302380Y-53309523D01*
X67254761Y-53547619D02*
X67969047Y-53785714D01*
X67969047Y-53166666D01*
%TO.C,R5*%
X73602380Y-20666666D02*
X73126190Y-21000000D01*
X73602380Y-21238095D02*
X72602380Y-21238095D01*
X72602380Y-20857142D01*
X72650000Y-20761904D01*
X72697619Y-20714285D01*
X72792857Y-20666666D01*
X72935714Y-20666666D01*
X73030952Y-20714285D01*
X73078571Y-20761904D01*
X73126190Y-20857142D01*
X73126190Y-21238095D01*
X72602380Y-19761904D02*
X72602380Y-20238095D01*
X73078571Y-20285714D01*
X73030952Y-20238095D01*
X72983333Y-20142857D01*
X72983333Y-19904761D01*
X73030952Y-19809523D01*
X73078571Y-19761904D01*
X73173809Y-19714285D01*
X73411904Y-19714285D01*
X73507142Y-19761904D01*
X73554761Y-19809523D01*
X73602380Y-19904761D01*
X73602380Y-20142857D01*
X73554761Y-20238095D01*
X73507142Y-20285714D01*
%TO.C,R6*%
X68302380Y-20666666D02*
X67826190Y-21000000D01*
X68302380Y-21238095D02*
X67302380Y-21238095D01*
X67302380Y-20857142D01*
X67350000Y-20761904D01*
X67397619Y-20714285D01*
X67492857Y-20666666D01*
X67635714Y-20666666D01*
X67730952Y-20714285D01*
X67778571Y-20761904D01*
X67826190Y-20857142D01*
X67826190Y-21238095D01*
X67302380Y-19809523D02*
X67302380Y-20000000D01*
X67350000Y-20095238D01*
X67397619Y-20142857D01*
X67540476Y-20238095D01*
X67730952Y-20285714D01*
X68111904Y-20285714D01*
X68207142Y-20238095D01*
X68254761Y-20190476D01*
X68302380Y-20095238D01*
X68302380Y-19904761D01*
X68254761Y-19809523D01*
X68207142Y-19761904D01*
X68111904Y-19714285D01*
X67873809Y-19714285D01*
X67778571Y-19761904D01*
X67730952Y-19809523D01*
X67683333Y-19904761D01*
X67683333Y-20095238D01*
X67730952Y-20190476D01*
X67778571Y-20238095D01*
X67873809Y-20285714D01*
%TO.C,U1*%
X61738095Y-52052380D02*
X61738095Y-52861904D01*
X61785714Y-52957142D01*
X61833333Y-53004761D01*
X61928571Y-53052380D01*
X62119047Y-53052380D01*
X62214285Y-53004761D01*
X62261904Y-52957142D01*
X62309523Y-52861904D01*
X62309523Y-52052380D01*
X63309523Y-53052380D02*
X62738095Y-53052380D01*
X63023809Y-53052380D02*
X63023809Y-52052380D01*
X62928571Y-52195238D01*
X62833333Y-52290476D01*
X62738095Y-52338095D01*
%TO.C,U2*%
X61738095Y-18552380D02*
X61738095Y-19361904D01*
X61785714Y-19457142D01*
X61833333Y-19504761D01*
X61928571Y-19552380D01*
X62119047Y-19552380D01*
X62214285Y-19504761D01*
X62261904Y-19457142D01*
X62309523Y-19361904D01*
X62309523Y-18552380D01*
X62738095Y-18647619D02*
X62785714Y-18600000D01*
X62880952Y-18552380D01*
X63119047Y-18552380D01*
X63214285Y-18600000D01*
X63261904Y-18647619D01*
X63309523Y-18742857D01*
X63309523Y-18838095D01*
X63261904Y-18980952D01*
X62690476Y-19552380D01*
X63309523Y-19552380D01*
%TO.C,H1*%
X3238095Y-8452380D02*
X3238095Y-7452380D01*
X3238095Y-7928571D02*
X3809523Y-7928571D01*
X3809523Y-8452380D02*
X3809523Y-7452380D01*
X4809523Y-8452380D02*
X4238095Y-8452380D01*
X4523809Y-8452380D02*
X4523809Y-7452380D01*
X4428571Y-7595238D01*
X4333333Y-7690476D01*
X4238095Y-7738095D01*
%TO.C,H2*%
X80238095Y-8452380D02*
X80238095Y-7452380D01*
X80238095Y-7928571D02*
X80809523Y-7928571D01*
X80809523Y-8452380D02*
X80809523Y-7452380D01*
X81238095Y-7547619D02*
X81285714Y-7500000D01*
X81380952Y-7452380D01*
X81619047Y-7452380D01*
X81714285Y-7500000D01*
X81761904Y-7547619D01*
X81809523Y-7642857D01*
X81809523Y-7738095D01*
X81761904Y-7880952D01*
X81190476Y-8452380D01*
X81809523Y-8452380D01*
%TO.C,H3*%
X3238095Y-87452380D02*
X3238095Y-86452380D01*
X3238095Y-86928571D02*
X3809523Y-86928571D01*
X3809523Y-87452380D02*
X3809523Y-86452380D01*
X4190476Y-86452380D02*
X4809523Y-86452380D01*
X4476190Y-86833333D01*
X4619047Y-86833333D01*
X4714285Y-86880952D01*
X4761904Y-86928571D01*
X4809523Y-87023809D01*
X4809523Y-87261904D01*
X4761904Y-87357142D01*
X4714285Y-87404761D01*
X4619047Y-87452380D01*
X4333333Y-87452380D01*
X4238095Y-87404761D01*
X4190476Y-87357142D01*
%TO.C,H4*%
X80238095Y-87452380D02*
X80238095Y-86452380D01*
X80238095Y-86928571D02*
X80809523Y-86928571D01*
X80809523Y-87452380D02*
X80809523Y-86452380D01*
X81714285Y-86785714D02*
X81714285Y-87452380D01*
X81476190Y-86404761D02*
X81238095Y-87119047D01*
X81857142Y-87119047D01*
%TO.C,SW1*%
D15*
X74514047Y-78693333D02*
X74574523Y-78511904D01*
X74574523Y-78209523D01*
X74514047Y-78088571D01*
X74453571Y-78028095D01*
X74332619Y-77967619D01*
X74211666Y-77967619D01*
X74090714Y-78028095D01*
X74030238Y-78088571D01*
X73969761Y-78209523D01*
X73909285Y-78451428D01*
X73848809Y-78572380D01*
X73788333Y-78632857D01*
X73667380Y-78693333D01*
X73546428Y-78693333D01*
X73425476Y-78632857D01*
X73365000Y-78572380D01*
X73304523Y-78451428D01*
X73304523Y-78149047D01*
X73365000Y-77967619D01*
X73304523Y-77544285D02*
X74574523Y-77241904D01*
X73667380Y-77000000D01*
X74574523Y-76758095D01*
X73304523Y-76455714D01*
X74574523Y-75306666D02*
X74574523Y-76032380D01*
X74574523Y-75669523D02*
X73304523Y-75669523D01*
X73485952Y-75790476D01*
X73606904Y-75911428D01*
X73667380Y-76032380D01*
%TD*%
M02*
